<mxfile host="app.diagrams.net" modified="2023-06-11T14:54:59.684Z" agent="Mozilla/5.0 (Windows NT 10.0; Win64; x64) AppleWebKit/537.36 (KHTML, like Gecko) Chrome/114.0.0.0 Safari/537.36" etag="PvUVFO1AHqJvYDjKTqTn" version="21.3.8" type="github">
  <diagram id="bUejSzj1VzHDGHlTm8p2" name="Page-1">
    <mxGraphModel dx="1395" dy="637" grid="1" gridSize="10" guides="1" tooltips="1" connect="1" arrows="1" fold="1" page="1" pageScale="1" pageWidth="850" pageHeight="1100" math="0" shadow="0">
      <root>
        <mxCell id="0" />
        <mxCell id="1" parent="0" />
        <mxCell id="JCTf3wyZuJ0cv_YU2LPX-2" value="&lt;br&gt;&lt;br&gt;&lt;br&gt;&lt;br&gt;&lt;br&gt;&lt;br&gt;&lt;br&gt;&lt;br&gt;&lt;br&gt;&lt;br&gt;&lt;br&gt;&lt;br&gt;&lt;br&gt;&lt;br&gt;&lt;br&gt;&lt;br&gt;Front Wood" style="rounded=0;whiteSpace=wrap;html=1;fillColor=#FFB570;" vertex="1" parent="1">
          <mxGeometry x="160" y="440" width="1000" height="280" as="geometry" />
        </mxCell>
        <mxCell id="JCTf3wyZuJ0cv_YU2LPX-4" value="Motherboard" style="whiteSpace=wrap;html=1;aspect=fixed;fillColor=#FF9999;" vertex="1" parent="1">
          <mxGeometry x="200" y="480" width="200" height="200" as="geometry" />
        </mxCell>
        <mxCell id="JCTf3wyZuJ0cv_YU2LPX-5" value="nic" style="rounded=0;whiteSpace=wrap;html=1;" vertex="1" parent="1">
          <mxGeometry x="200" y="590" width="20" height="20" as="geometry" />
        </mxCell>
        <mxCell id="JCTf3wyZuJ0cv_YU2LPX-6" value="&lt;font style=&quot;font-size: 9px;&quot;&gt;power supply plug&lt;/font&gt;" style="rounded=0;whiteSpace=wrap;html=1;" vertex="1" parent="1">
          <mxGeometry x="370" y="550" width="30" height="60" as="geometry" />
        </mxCell>
        <mxCell id="JCTf3wyZuJ0cv_YU2LPX-8" value="&lt;font style=&quot;font-size: 10px;&quot;&gt;usb&lt;/font&gt;" style="rounded=0;whiteSpace=wrap;html=1;" vertex="1" parent="1">
          <mxGeometry x="200" y="550" width="20" height="20" as="geometry" />
        </mxCell>
        <mxCell id="JCTf3wyZuJ0cv_YU2LPX-9" value="" style="rounded=0;whiteSpace=wrap;html=1;" vertex="1" parent="1">
          <mxGeometry x="310" y="660" width="60" height="20" as="geometry" />
        </mxCell>
        <mxCell id="JCTf3wyZuJ0cv_YU2LPX-10" value="&lt;br&gt;&lt;br&gt;&lt;br&gt;&lt;br&gt;&lt;br&gt;&lt;br&gt;&lt;br&gt;&lt;br&gt;&lt;br&gt;&lt;br&gt;&lt;br&gt;&lt;br&gt;&lt;br&gt;&lt;br&gt;&lt;br&gt;&lt;br&gt;&lt;br&gt;Back Wood" style="rounded=0;whiteSpace=wrap;html=1;fillColor=#FFB570;" vertex="1" parent="1">
          <mxGeometry x="160" y="730" width="1000" height="280" as="geometry" />
        </mxCell>
        <mxCell id="JCTf3wyZuJ0cv_YU2LPX-11" value="Motherboard" style="whiteSpace=wrap;html=1;aspect=fixed;fillColor=#FF9999;" vertex="1" parent="1">
          <mxGeometry x="200" y="770" width="200" height="200" as="geometry" />
        </mxCell>
        <mxCell id="JCTf3wyZuJ0cv_YU2LPX-12" value="nic" style="rounded=0;whiteSpace=wrap;html=1;" vertex="1" parent="1">
          <mxGeometry x="200" y="880" width="20" height="20" as="geometry" />
        </mxCell>
        <mxCell id="JCTf3wyZuJ0cv_YU2LPX-13" value="&lt;font style=&quot;font-size: 9px;&quot;&gt;power supply plug&lt;/font&gt;" style="rounded=0;whiteSpace=wrap;html=1;" vertex="1" parent="1">
          <mxGeometry x="370" y="840" width="30" height="60" as="geometry" />
        </mxCell>
        <mxCell id="JCTf3wyZuJ0cv_YU2LPX-14" value="&lt;font style=&quot;font-size: 10px;&quot;&gt;usb&lt;/font&gt;" style="rounded=0;whiteSpace=wrap;html=1;" vertex="1" parent="1">
          <mxGeometry x="200" y="840" width="20" height="20" as="geometry" />
        </mxCell>
        <mxCell id="JCTf3wyZuJ0cv_YU2LPX-15" value="" style="rounded=0;whiteSpace=wrap;html=1;" vertex="1" parent="1">
          <mxGeometry x="310" y="950" width="60" height="20" as="geometry" />
        </mxCell>
      </root>
    </mxGraphModel>
  </diagram>
</mxfile>
